<?xml version="1.0" encoding="utf-8"?><svg viewBox="0 0 30 31" xmlns="http://www.w3.org/2000/svg" xmlns:xlink="http://www.w3.org/1999/xlink"><style>:root>svg{display:none}:root>svg:target{display:block}</style><svg fill="none" viewBox="0 0 16 16" id="arrow" xmlns="http://www.w3.org/2000/svg"><g clip-path="url(#aa)"><path fill-rule="evenodd" clip-rule="evenodd" d="M.624 8.75v-1.5h8v-5.5l7.001 7h-15z" fill="#fff"/></g><defs><clipPath id="aa"><path fill="#fff" transform="translate(.625 .5)" d="M0 0h15v15H0z"/></clipPath></defs></svg><svg fill="none" viewBox="0 0 18 18" id="clip" xmlns="http://www.w3.org/2000/svg"><g clip-path="url(#ba)"><path fill-rule="evenodd" clip-rule="evenodd" d="M11.609 1.942a3.744 3.744 0 115.294 5.294l-.423.424a.75.75 0 01-1.06-1.061l.423-.424a2.244 2.244 0 10-3.174-3.173L5.472 10.2a1.046 1.046 0 101.48 1.48l5.504-5.505a.75.75 0 011.06 1.061L8.012 12.74a2.546 2.546 0 11-3.6-3.6l7.197-7.198zm-2.75.423a.75.75 0 010 1.06L2.508 9.778a3.441 3.441 0 104.867 4.866l6.35-6.35a.75.75 0 011.062 1.06l-6.351 6.351a4.941 4.941 0 01-6.989-6.988l6.351-6.351a.75.75 0 011.06 0z" fill="#909090"/></g><defs><clipPath id="ba"><path fill="#fff" d="M0 0h18v18H0z"/></clipPath></defs></svg><svg viewBox="0 0 30 31" id="logo" xmlns="http://www.w3.org/2000/svg"><path clip-rule="evenodd" d="M6.091 5.47l2.233 2.233a10.223 10.223 0 015.883-2.437V2.108A13.357 13.357 0 006.091 5.47zm9.702-3.362v3.158a10.224 10.224 0 015.883 2.437l2.233-2.233a13.357 13.357 0 00-8.116-3.362zm9.237 4.483l-2.233 2.233a10.223 10.223 0 012.437 5.883h3.158a13.357 13.357 0 00-3.362-8.116zm3.362 9.702h-3.158a10.223 10.223 0 01-2.437 5.883l2.233 2.233a13.357 13.357 0 003.362-8.116zm-4.483 9.237l-2.233-2.233a10.223 10.223 0 01-5.883 2.437v3.158a13.364 13.364 0 008.116-3.362zm-9.702 3.362v-3.158a10.223 10.223 0 01-5.883-2.437L6.091 25.53a13.357 13.357 0 008.116 3.362zM4.97 24.409l2.233-2.233a10.224 10.224 0 01-2.437-5.883H1.608a13.357 13.357 0 003.362 8.116zm-3.362-9.702h3.158a10.223 10.223 0 012.437-5.883L4.97 6.591a13.357 13.357 0 00-3.362 8.116zm2.785-9.814A14.956 14.956 0 0115 .5a14.96 14.96 0 0110.607 4.393A14.956 14.956 0 0130 15.5a14.96 14.96 0 01-4.393 10.607A14.956 14.956 0 0115 30.5a14.96 14.96 0 01-10.607-4.393A14.956 14.956 0 010 15.5 14.96 14.96 0 014.393 4.893zM15 6.821a8.65 8.65 0 00-6.137 2.542A8.65 8.65 0 006.321 15.5a8.65 8.65 0 002.542 6.137A8.65 8.65 0 0015 24.179a8.65 8.65 0 006.137-2.542 8.65 8.65 0 002.542-6.137 8.65 8.65 0 00-2.542-6.137A8.65 8.65 0 0015 6.821zm-1.102 3.126v3.382h-1.585v-.715a3.933 3.933 0 00-1.256 2.886c0 1.139.483 2.166 1.256 2.886v-.715h1.585v3.382l-1.11-.485a5.53 5.53 0 010-10.136l1.11-.485zm2.204 0l1.11.485a5.53 5.53 0 010 10.136l-1.11.485v-3.382h1.585v.715a3.933 3.933 0 001.256-2.886 3.933 3.933 0 00-1.256-2.886v.715h-1.585V9.947z"/></svg><svg fill="none" viewBox="0 0 19 18" id="phone" xmlns="http://www.w3.org/2000/svg"><g clip-path="url(#da)"><path clip-rule="evenodd" d="M13.971.039a1.527 1.527 0 00-1.742.882l-.001.003-1.549 3.61c-.267.623-.09 1.35.44 1.779l1.486 1.218a11.21 11.21 0 01-4.573 4.572l-1.22-1.489a1.52 1.52 0 00-1.777-.437l-3.608 1.545-.006.003a1.533 1.533 0 00-.882 1.745l.773 3.351c.16.688.772 1.18 1.484 1.18C11.46 18 18.498 10.98 18.5 2.301A1.513 1.513 0 0017.323.815L13.97.039zm-.366 1.479l-1.547 3.607 2.413 1.996-.248.529a12.692 12.692 0 01-6.073 6.07l-.528.248-1.997-2.413L2.023 13.1a.042.042 0 00-.02.019C2 13.126 2 13.13 2 13.13v.001l.773 3.351c.002.01.01.017.023.017C10.635 16.5 17 10.148 17 2.3v-.014l-.002-.003-.003-.003-.007-.002h-.002L13.635 1.5h-.008a.026.026 0 00-.008.002.03.03 0 00-.014.015z"/></g><defs><clipPath id="da"><path fill="#fff" transform="translate(.5)" d="M0 0h18v18H0z"/></clipPath></defs></svg><svg fill="none" viewBox="0 0 19 18" id="pin" xmlns="http://www.w3.org/2000/svg"><path clip-rule="evenodd" d="M8.75 17.426l.217.172.532.399.532-.4.217-.171a26.184 26.184 0 003.073-2.92c1.65-1.853 3.452-4.482 3.452-7.232a7.274 7.274 0 00-14.548 0c0 2.75 1.803 5.379 3.452 7.232a26.187 26.187 0 003.073 2.92zM9.499 1.5a5.774 5.774 0 00-5.774 5.774c0 2.158 1.46 4.422 3.072 6.235A24.667 24.667 0 009.5 16.102a24.662 24.662 0 002.702-2.593c1.613-1.813 3.072-4.077 3.072-6.235A5.774 5.774 0 009.499 1.5z"/><path clip-rule="evenodd" d="M9.499 4.762a2.512 2.512 0 100 5.024 2.512 2.512 0 000-5.024zM5.487 7.274a4.012 4.012 0 118.024 0 4.012 4.012 0 01-8.024 0z"/></svg></svg>